<svg xmlns="http://www.w3.org/2000/svg" xmlns:xlink="http://www.w3.org/1999/xlink" width="50" zoomAndPan="magnify" viewBox="0 0 37.5 41.25" height="55" preserveAspectRatio="xMidYMid meet" version="1.0"><defs><g/><clipPath id="e8ead560dd"><path d="M 0.0898438 0 L 36.917969 0 L 36.917969 40.511719 L 0.0898438 40.511719 Z M 0.0898438 0 " clip-rule="nonzero"/></clipPath><clipPath id="f3b9212204"><path d="M 7.902344 1.300781 L 29.078125 1.300781 L 29.078125 22.476562 L 7.902344 22.476562 Z M 7.902344 1.300781 " clip-rule="nonzero"/></clipPath><clipPath id="c0dd685b55"><path d="M 13.605469 1.300781 L 23.402344 1.300781 C 23.777344 1.300781 24.148438 1.335938 24.515625 1.410156 C 24.882812 1.484375 25.238281 1.589844 25.585938 1.734375 C 25.929688 1.878906 26.257812 2.054688 26.570312 2.261719 C 26.882812 2.46875 27.171875 2.707031 27.433594 2.972656 C 27.699219 3.234375 27.9375 3.523438 28.144531 3.835938 C 28.351562 4.148438 28.527344 4.476562 28.671875 4.820312 C 28.816406 5.167969 28.921875 5.523438 28.996094 5.890625 C 29.070312 6.257812 29.105469 6.628906 29.105469 7.003906 L 29.105469 16.800781 C 29.105469 17.175781 29.070312 17.546875 28.996094 17.914062 C 28.921875 18.28125 28.816406 18.636719 28.671875 18.984375 C 28.527344 19.328125 28.351562 19.65625 28.144531 19.96875 C 27.9375 20.28125 27.699219 20.570312 27.433594 20.832031 C 27.171875 21.097656 26.882812 21.335938 26.570312 21.542969 C 26.257812 21.75 25.929688 21.925781 25.585938 22.070312 C 25.238281 22.214844 24.882812 22.320312 24.515625 22.394531 C 24.148438 22.46875 23.777344 22.503906 23.402344 22.503906 L 13.605469 22.503906 C 13.230469 22.503906 12.863281 22.46875 12.492188 22.394531 C 12.125 22.320312 11.769531 22.214844 11.425781 22.070312 C 11.078125 21.925781 10.75 21.75 10.4375 21.542969 C 10.125 21.335938 9.839844 21.097656 9.574219 20.832031 C 9.308594 20.570312 9.070312 20.28125 8.863281 19.96875 C 8.65625 19.65625 8.480469 19.328125 8.335938 18.984375 C 8.195312 18.636719 8.085938 18.28125 8.011719 17.914062 C 7.9375 17.546875 7.902344 17.175781 7.902344 16.800781 L 7.902344 7.003906 C 7.902344 6.628906 7.9375 6.257812 8.011719 5.890625 C 8.085938 5.523438 8.195312 5.167969 8.335938 4.820312 C 8.480469 4.476562 8.65625 4.148438 8.863281 3.835938 C 9.070312 3.523438 9.308594 3.234375 9.574219 2.972656 C 9.839844 2.707031 10.125 2.46875 10.4375 2.261719 C 10.75 2.054688 11.078125 1.878906 11.425781 1.734375 C 11.769531 1.589844 12.125 1.484375 12.492188 1.410156 C 12.863281 1.335938 13.230469 1.300781 13.605469 1.300781 Z M 13.605469 1.300781 " clip-rule="nonzero"/></clipPath><linearGradient x1="21.457458" gradientTransform="matrix(0, -0.0898462, 0.0898462, 0, 7.902598, 22.504402)" y1="-15.316502" x2="214.503133" gradientUnits="userSpaceOnUse" y2="251.260381" id="f899ed3925"><stop stop-opacity="1" stop-color="rgb(48.661804%, 71.781921%, 90.200806%)" offset="0"/><stop stop-opacity="1" stop-color="rgb(48.562622%, 71.856689%, 89.797974%)" offset="0.00390625"/><stop stop-opacity="1" stop-color="rgb(48.464966%, 71.932983%, 89.395142%)" offset="0.0078125"/><stop stop-opacity="1" stop-color="rgb(48.365784%, 72.009277%, 88.990784%)" offset="0.0117187"/><stop stop-opacity="1" stop-color="rgb(48.268127%, 72.085571%, 88.587952%)" offset="0.015625"/><stop stop-opacity="1" stop-color="rgb(48.170471%, 72.160339%, 88.18512%)" offset="0.0195312"/><stop stop-opacity="1" stop-color="rgb(48.072815%, 72.236633%, 87.782288%)" offset="0.0234375"/><stop stop-opacity="1" stop-color="rgb(47.973633%, 72.311401%, 87.37793%)" offset="0.0273437"/><stop stop-opacity="1" stop-color="rgb(47.875977%, 72.387695%, 86.975098%)" offset="0.03125"/><stop stop-opacity="1" stop-color="rgb(47.776794%, 72.462463%, 86.572266%)" offset="0.0351563"/><stop stop-opacity="1" stop-color="rgb(47.679138%, 72.538757%, 86.169434%)" offset="0.0390625"/><stop stop-opacity="1" stop-color="rgb(47.579956%, 72.615051%, 85.765076%)" offset="0.0429688"/><stop stop-opacity="1" stop-color="rgb(47.4823%, 72.691345%, 85.362244%)" offset="0.046875"/><stop stop-opacity="1" stop-color="rgb(47.383118%, 72.766113%, 84.959412%)" offset="0.0507812"/><stop stop-opacity="1" stop-color="rgb(47.285461%, 72.842407%, 84.55658%)" offset="0.0546875"/><stop stop-opacity="1" stop-color="rgb(47.186279%, 72.917175%, 84.152222%)" offset="0.0585937"/><stop stop-opacity="1" stop-color="rgb(47.088623%, 72.993469%, 83.74939%)" offset="0.0625"/><stop stop-opacity="1" stop-color="rgb(46.989441%, 73.068237%, 83.346558%)" offset="0.0664062"/><stop stop-opacity="1" stop-color="rgb(46.891785%, 73.144531%, 82.943726%)" offset="0.0703125"/><stop stop-opacity="1" stop-color="rgb(46.792603%, 73.220825%, 82.539368%)" offset="0.0742187"/><stop stop-opacity="1" stop-color="rgb(46.694946%, 73.297119%, 82.136536%)" offset="0.078125"/><stop stop-opacity="1" stop-color="rgb(46.595764%, 73.371887%, 81.733704%)" offset="0.0820312"/><stop stop-opacity="1" stop-color="rgb(46.498108%, 73.448181%, 81.330872%)" offset="0.0859375"/><stop stop-opacity="1" stop-color="rgb(46.398926%, 73.522949%, 80.926514%)" offset="0.0898438"/><stop stop-opacity="1" stop-color="rgb(46.30127%, 73.599243%, 80.523682%)" offset="0.09375"/><stop stop-opacity="1" stop-color="rgb(46.202087%, 73.674011%, 80.12085%)" offset="0.0976562"/><stop stop-opacity="1" stop-color="rgb(46.104431%, 73.750305%, 79.718018%)" offset="0.101563"/><stop stop-opacity="1" stop-color="rgb(46.005249%, 73.826599%, 79.31366%)" offset="0.105469"/><stop stop-opacity="1" stop-color="rgb(45.907593%, 73.902893%, 78.910828%)" offset="0.109375"/><stop stop-opacity="1" stop-color="rgb(45.808411%, 73.977661%, 78.507996%)" offset="0.113281"/><stop stop-opacity="1" stop-color="rgb(45.710754%, 74.053955%, 78.105164%)" offset="0.117188"/><stop stop-opacity="1" stop-color="rgb(45.611572%, 74.128723%, 77.700806%)" offset="0.121094"/><stop stop-opacity="1" stop-color="rgb(45.513916%, 74.205017%, 77.297974%)" offset="0.125"/><stop stop-opacity="1" stop-color="rgb(45.414734%, 74.279785%, 76.893616%)" offset="0.128906"/><stop stop-opacity="1" stop-color="rgb(45.317078%, 74.356079%, 76.490784%)" offset="0.132812"/><stop stop-opacity="1" stop-color="rgb(45.217896%, 74.432373%, 76.087952%)" offset="0.136719"/><stop stop-opacity="1" stop-color="rgb(45.120239%, 74.508667%, 75.68512%)" offset="0.140625"/><stop stop-opacity="1" stop-color="rgb(45.021057%, 74.583435%, 75.280762%)" offset="0.144531"/><stop stop-opacity="1" stop-color="rgb(44.923401%, 74.659729%, 74.87793%)" offset="0.148438"/><stop stop-opacity="1" stop-color="rgb(44.824219%, 74.734497%, 74.475098%)" offset="0.152344"/><stop stop-opacity="1" stop-color="rgb(44.726562%, 74.810791%, 74.072266%)" offset="0.15625"/><stop stop-opacity="1" stop-color="rgb(44.62738%, 74.885559%, 73.667908%)" offset="0.160156"/><stop stop-opacity="1" stop-color="rgb(44.529724%, 74.961853%, 73.265076%)" offset="0.164063"/><stop stop-opacity="1" stop-color="rgb(44.430542%, 75.038147%, 72.862244%)" offset="0.167969"/><stop stop-opacity="1" stop-color="rgb(44.332886%, 75.114441%, 72.459412%)" offset="0.171875"/><stop stop-opacity="1" stop-color="rgb(44.233704%, 75.189209%, 72.055054%)" offset="0.175781"/><stop stop-opacity="1" stop-color="rgb(44.136047%, 75.265503%, 71.652222%)" offset="0.179688"/><stop stop-opacity="1" stop-color="rgb(44.036865%, 75.340271%, 71.24939%)" offset="0.183594"/><stop stop-opacity="1" stop-color="rgb(43.939209%, 75.416565%, 70.846558%)" offset="0.1875"/><stop stop-opacity="1" stop-color="rgb(43.840027%, 75.491333%, 70.4422%)" offset="0.191406"/><stop stop-opacity="1" stop-color="rgb(43.742371%, 75.567627%, 70.039368%)" offset="0.195312"/><stop stop-opacity="1" stop-color="rgb(43.643188%, 75.643921%, 69.636536%)" offset="0.199219"/><stop stop-opacity="1" stop-color="rgb(43.545532%, 75.720215%, 69.233704%)" offset="0.203125"/><stop stop-opacity="1" stop-color="rgb(43.44635%, 75.794983%, 68.829346%)" offset="0.207031"/><stop stop-opacity="1" stop-color="rgb(43.348694%, 75.871277%, 68.426514%)" offset="0.210938"/><stop stop-opacity="1" stop-color="rgb(43.249512%, 75.946045%, 68.023682%)" offset="0.214844"/><stop stop-opacity="1" stop-color="rgb(43.151855%, 76.022339%, 67.62085%)" offset="0.21875"/><stop stop-opacity="1" stop-color="rgb(43.052673%, 76.097107%, 67.216492%)" offset="0.222656"/><stop stop-opacity="1" stop-color="rgb(42.955017%, 76.173401%, 66.81366%)" offset="0.226562"/><stop stop-opacity="1" stop-color="rgb(42.855835%, 76.249695%, 66.410828%)" offset="0.230469"/><stop stop-opacity="1" stop-color="rgb(42.758179%, 76.325989%, 66.007996%)" offset="0.234375"/><stop stop-opacity="1" stop-color="rgb(42.658997%, 76.400757%, 65.603638%)" offset="0.238281"/><stop stop-opacity="1" stop-color="rgb(42.56134%, 76.477051%, 65.200806%)" offset="0.242188"/><stop stop-opacity="1" stop-color="rgb(42.462158%, 76.551819%, 64.797974%)" offset="0.246094"/><stop stop-opacity="1" stop-color="rgb(42.364502%, 76.628113%, 64.395142%)" offset="0.25"/><stop stop-opacity="1" stop-color="rgb(42.26532%, 76.702881%, 63.990784%)" offset="0.253906"/><stop stop-opacity="1" stop-color="rgb(42.167664%, 76.779175%, 63.587952%)" offset="0.257812"/><stop stop-opacity="1" stop-color="rgb(42.068481%, 76.855469%, 63.18512%)" offset="0.261719"/><stop stop-opacity="1" stop-color="rgb(41.970825%, 76.931763%, 62.782288%)" offset="0.265625"/><stop stop-opacity="1" stop-color="rgb(41.871643%, 77.006531%, 62.37793%)" offset="0.269531"/><stop stop-opacity="1" stop-color="rgb(41.773987%, 77.082825%, 61.975098%)" offset="0.273438"/><stop stop-opacity="1" stop-color="rgb(41.674805%, 77.157593%, 61.57074%)" offset="0.277344"/><stop stop-opacity="1" stop-color="rgb(41.577148%, 77.233887%, 61.167908%)" offset="0.28125"/><stop stop-opacity="1" stop-color="rgb(41.479492%, 77.310181%, 60.765076%)" offset="0.285156"/><stop stop-opacity="1" stop-color="rgb(41.381836%, 77.386475%, 60.362244%)" offset="0.289063"/><stop stop-opacity="1" stop-color="rgb(41.282654%, 77.461243%, 59.957886%)" offset="0.292969"/><stop stop-opacity="1" stop-color="rgb(41.184998%, 77.537537%, 59.555054%)" offset="0.296875"/><stop stop-opacity="1" stop-color="rgb(41.085815%, 77.612305%, 59.152222%)" offset="0.300781"/><stop stop-opacity="1" stop-color="rgb(40.988159%, 77.688599%, 58.74939%)" offset="0.304688"/><stop stop-opacity="1" stop-color="rgb(40.888977%, 77.763367%, 58.345032%)" offset="0.308594"/><stop stop-opacity="1" stop-color="rgb(40.791321%, 77.839661%, 57.9422%)" offset="0.3125"/><stop stop-opacity="1" stop-color="rgb(40.692139%, 77.915955%, 57.539368%)" offset="0.316406"/><stop stop-opacity="1" stop-color="rgb(40.594482%, 77.992249%, 57.136536%)" offset="0.320313"/><stop stop-opacity="1" stop-color="rgb(40.4953%, 78.067017%, 56.732178%)" offset="0.324219"/><stop stop-opacity="1" stop-color="rgb(40.397644%, 78.143311%, 56.329346%)" offset="0.328125"/><stop stop-opacity="1" stop-color="rgb(40.298462%, 78.218079%, 55.926514%)" offset="0.332031"/><stop stop-opacity="1" stop-color="rgb(40.200806%, 78.294373%, 55.523682%)" offset="0.335938"/><stop stop-opacity="1" stop-color="rgb(40.101624%, 78.369141%, 55.119324%)" offset="0.339844"/><stop stop-opacity="1" stop-color="rgb(40.003967%, 78.445435%, 54.716492%)" offset="0.34375"/><stop stop-opacity="1" stop-color="rgb(39.904785%, 78.521729%, 54.31366%)" offset="0.347656"/><stop stop-opacity="1" stop-color="rgb(39.807129%, 78.598022%, 53.910828%)" offset="0.351562"/><stop stop-opacity="1" stop-color="rgb(39.707947%, 78.672791%, 53.50647%)" offset="0.355469"/><stop stop-opacity="1" stop-color="rgb(39.610291%, 78.749084%, 53.103638%)" offset="0.359375"/><stop stop-opacity="1" stop-color="rgb(39.511108%, 78.823853%, 52.700806%)" offset="0.363281"/><stop stop-opacity="1" stop-color="rgb(39.413452%, 78.900146%, 52.297974%)" offset="0.367188"/><stop stop-opacity="1" stop-color="rgb(39.31427%, 78.974915%, 51.893616%)" offset="0.371094"/><stop stop-opacity="1" stop-color="rgb(39.216614%, 79.051208%, 51.490784%)" offset="0.375"/><stop stop-opacity="1" stop-color="rgb(39.117432%, 79.127502%, 51.087952%)" offset="0.378906"/><stop stop-opacity="1" stop-color="rgb(39.019775%, 79.203796%, 50.68512%)" offset="0.382812"/><stop stop-opacity="1" stop-color="rgb(38.920593%, 79.278564%, 50.280762%)" offset="0.386719"/><stop stop-opacity="1" stop-color="rgb(38.822937%, 79.354858%, 49.87793%)" offset="0.390625"/><stop stop-opacity="1" stop-color="rgb(38.723755%, 79.429626%, 49.475098%)" offset="0.394531"/><stop stop-opacity="1" stop-color="rgb(38.626099%, 79.50592%, 49.072266%)" offset="0.398438"/><stop stop-opacity="1" stop-color="rgb(38.526917%, 79.580688%, 48.667908%)" offset="0.402344"/><stop stop-opacity="1" stop-color="rgb(38.42926%, 79.656982%, 48.265076%)" offset="0.40625"/><stop stop-opacity="1" stop-color="rgb(38.330078%, 79.733276%, 47.862244%)" offset="0.410156"/><stop stop-opacity="1" stop-color="rgb(38.232422%, 79.80957%, 47.459412%)" offset="0.414062"/><stop stop-opacity="1" stop-color="rgb(38.13324%, 79.884338%, 47.055054%)" offset="0.417969"/><stop stop-opacity="1" stop-color="rgb(38.035583%, 79.960632%, 46.652222%)" offset="0.421875"/><stop stop-opacity="1" stop-color="rgb(37.936401%, 80.0354%, 46.24939%)" offset="0.425781"/><stop stop-opacity="1" stop-color="rgb(37.838745%, 80.111694%, 45.846558%)" offset="0.429688"/><stop stop-opacity="1" stop-color="rgb(37.739563%, 80.186462%, 45.4422%)" offset="0.433594"/><stop stop-opacity="1" stop-color="rgb(37.641907%, 80.262756%, 45.039368%)" offset="0.4375"/><stop stop-opacity="1" stop-color="rgb(37.542725%, 80.33905%, 44.63501%)" offset="0.441406"/><stop stop-opacity="1" stop-color="rgb(37.445068%, 80.415344%, 44.232178%)" offset="0.445312"/><stop stop-opacity="1" stop-color="rgb(37.345886%, 80.490112%, 43.829346%)" offset="0.449219"/><stop stop-opacity="1" stop-color="rgb(37.24823%, 80.566406%, 43.426514%)" offset="0.453125"/><stop stop-opacity="1" stop-color="rgb(37.149048%, 80.641174%, 43.022156%)" offset="0.457031"/><stop stop-opacity="1" stop-color="rgb(37.051392%, 80.717468%, 42.619324%)" offset="0.460938"/><stop stop-opacity="1" stop-color="rgb(36.952209%, 80.792236%, 42.216492%)" offset="0.464844"/><stop stop-opacity="1" stop-color="rgb(36.854553%, 80.86853%, 41.81366%)" offset="0.46875"/><stop stop-opacity="1" stop-color="rgb(36.755371%, 80.944824%, 41.409302%)" offset="0.472656"/><stop stop-opacity="1" stop-color="rgb(36.657715%, 81.021118%, 41.00647%)" offset="0.476562"/><stop stop-opacity="1" stop-color="rgb(36.558533%, 81.095886%, 40.603638%)" offset="0.480469"/><stop stop-opacity="1" stop-color="rgb(36.460876%, 81.17218%, 40.200806%)" offset="0.484375"/><stop stop-opacity="1" stop-color="rgb(36.361694%, 81.246948%, 39.796448%)" offset="0.488281"/><stop stop-opacity="1" stop-color="rgb(36.264038%, 81.323242%, 39.393616%)" offset="0.492187"/><stop stop-opacity="1" stop-color="rgb(36.164856%, 81.39801%, 38.990784%)" offset="0.496094"/><stop stop-opacity="1" stop-color="rgb(36.0672%, 81.474304%, 38.587952%)" offset="0.5"/><stop stop-opacity="1" stop-color="rgb(35.968018%, 81.550598%, 38.183594%)" offset="0.503906"/><stop stop-opacity="1" stop-color="rgb(35.870361%, 81.626892%, 37.780762%)" offset="0.507812"/><stop stop-opacity="1" stop-color="rgb(35.771179%, 81.70166%, 37.37793%)" offset="0.511719"/><stop stop-opacity="1" stop-color="rgb(35.673523%, 81.777954%, 36.975098%)" offset="0.515625"/><stop stop-opacity="1" stop-color="rgb(35.574341%, 81.852722%, 36.57074%)" offset="0.519531"/><stop stop-opacity="1" stop-color="rgb(35.476685%, 81.929016%, 36.167908%)" offset="0.523438"/><stop stop-opacity="1" stop-color="rgb(35.377502%, 82.003784%, 35.765076%)" offset="0.527344"/><stop stop-opacity="1" stop-color="rgb(35.279846%, 82.080078%, 35.362244%)" offset="0.53125"/><stop stop-opacity="1" stop-color="rgb(35.180664%, 82.156372%, 34.957886%)" offset="0.535156"/><stop stop-opacity="1" stop-color="rgb(35.083008%, 82.232666%, 34.555054%)" offset="0.539062"/><stop stop-opacity="1" stop-color="rgb(34.983826%, 82.307434%, 34.152222%)" offset="0.542969"/><stop stop-opacity="1" stop-color="rgb(34.886169%, 82.383728%, 33.74939%)" offset="0.546875"/><stop stop-opacity="1" stop-color="rgb(34.788513%, 82.458496%, 33.345032%)" offset="0.550781"/><stop stop-opacity="1" stop-color="rgb(34.690857%, 82.53479%, 32.9422%)" offset="0.554688"/><stop stop-opacity="1" stop-color="rgb(34.591675%, 82.609558%, 32.539368%)" offset="0.558594"/><stop stop-opacity="1" stop-color="rgb(34.494019%, 82.685852%, 32.136536%)" offset="0.5625"/><stop stop-opacity="1" stop-color="rgb(34.394836%, 82.762146%, 31.732178%)" offset="0.566406"/><stop stop-opacity="1" stop-color="rgb(34.29718%, 82.83844%, 31.329346%)" offset="0.570312"/><stop stop-opacity="1" stop-color="rgb(34.197998%, 82.913208%, 30.926514%)" offset="0.574219"/><stop stop-opacity="1" stop-color="rgb(34.100342%, 82.989502%, 30.523682%)" offset="0.578125"/><stop stop-opacity="1" stop-color="rgb(34.00116%, 83.06427%, 30.119324%)" offset="0.582031"/><stop stop-opacity="1" stop-color="rgb(33.903503%, 83.140564%, 29.716492%)" offset="0.585938"/><stop stop-opacity="1" stop-color="rgb(33.804321%, 83.216858%, 29.312134%)" offset="0.589844"/><stop stop-opacity="1" stop-color="rgb(33.706665%, 83.293152%, 28.909302%)" offset="0.59375"/><stop stop-opacity="1" stop-color="rgb(33.607483%, 83.36792%, 28.50647%)" offset="0.597656"/><stop stop-opacity="1" stop-color="rgb(33.509827%, 83.444214%, 28.103638%)" offset="0.601562"/><stop stop-opacity="1" stop-color="rgb(33.410645%, 83.518982%, 27.69928%)" offset="0.605469"/><stop stop-opacity="1" stop-color="rgb(33.312988%, 83.595276%, 27.296448%)" offset="0.609375"/><stop stop-opacity="1" stop-color="rgb(33.213806%, 83.670044%, 26.893616%)" offset="0.613281"/><stop stop-opacity="1" stop-color="rgb(33.11615%, 83.746338%, 26.490784%)" offset="0.617188"/><stop stop-opacity="1" stop-color="rgb(33.016968%, 83.822632%, 26.086426%)" offset="0.621094"/><stop stop-opacity="1" stop-color="rgb(32.919312%, 83.898926%, 25.683594%)" offset="0.625"/><stop stop-opacity="1" stop-color="rgb(32.820129%, 83.973694%, 25.280762%)" offset="0.628906"/><stop stop-opacity="1" stop-color="rgb(32.722473%, 84.049988%, 24.87793%)" offset="0.632812"/><stop stop-opacity="1" stop-color="rgb(32.623291%, 84.124756%, 24.473572%)" offset="0.636719"/><stop stop-opacity="1" stop-color="rgb(32.525635%, 84.20105%, 24.07074%)" offset="0.640625"/><stop stop-opacity="1" stop-color="rgb(32.426453%, 84.275818%, 23.667908%)" offset="0.644531"/><stop stop-opacity="1" stop-color="rgb(32.328796%, 84.352112%, 23.265076%)" offset="0.648438"/><stop stop-opacity="1" stop-color="rgb(32.229614%, 84.428406%, 22.860718%)" offset="0.652344"/><stop stop-opacity="1" stop-color="rgb(32.131958%, 84.5047%, 22.457886%)" offset="0.65625"/><stop stop-opacity="1" stop-color="rgb(32.032776%, 84.579468%, 22.055054%)" offset="0.660156"/><stop stop-opacity="1" stop-color="rgb(31.93512%, 84.655762%, 21.652222%)" offset="0.664062"/><stop stop-opacity="1" stop-color="rgb(31.835938%, 84.73053%, 21.247864%)" offset="0.667969"/><stop stop-opacity="1" stop-color="rgb(31.738281%, 84.806824%, 20.845032%)" offset="0.671875"/><stop stop-opacity="1" stop-color="rgb(31.639099%, 84.881592%, 20.4422%)" offset="0.675781"/><stop stop-opacity="1" stop-color="rgb(31.541443%, 84.957886%, 20.039368%)" offset="0.679688"/><stop stop-opacity="1" stop-color="rgb(31.442261%, 85.03418%, 19.63501%)" offset="0.683594"/><stop stop-opacity="1" stop-color="rgb(31.344604%, 85.110474%, 19.232178%)" offset="0.6875"/><stop stop-opacity="1" stop-color="rgb(31.245422%, 85.185242%, 18.829346%)" offset="0.691406"/><stop stop-opacity="1" stop-color="rgb(31.147766%, 85.261536%, 18.426514%)" offset="0.695312"/><stop stop-opacity="1" stop-color="rgb(31.048584%, 85.336304%, 18.022156%)" offset="0.699219"/><stop stop-opacity="1" stop-color="rgb(30.950928%, 85.412598%, 17.619324%)" offset="0.703125"/><stop stop-opacity="1" stop-color="rgb(30.851746%, 85.487366%, 17.216492%)" offset="0.707031"/><stop stop-opacity="1" stop-color="rgb(30.754089%, 85.56366%, 16.81366%)" offset="0.710938"/><stop stop-opacity="1" stop-color="rgb(30.654907%, 85.639954%, 16.409302%)" offset="0.714844"/><stop stop-opacity="1" stop-color="rgb(30.557251%, 85.716248%, 16.00647%)" offset="0.71875"/><stop stop-opacity="1" stop-color="rgb(30.458069%, 85.791016%, 15.603638%)" offset="0.722656"/><stop stop-opacity="1" stop-color="rgb(30.360413%, 85.86731%, 15.200806%)" offset="0.726562"/><stop stop-opacity="1" stop-color="rgb(30.26123%, 85.942078%, 14.796448%)" offset="0.730469"/><stop stop-opacity="1" stop-color="rgb(30.163574%, 86.018372%, 14.393616%)" offset="0.734375"/><stop stop-opacity="1" stop-color="rgb(30.064392%, 86.09314%, 13.989258%)" offset="0.738281"/><stop stop-opacity="1" stop-color="rgb(29.966736%, 86.169434%, 13.586426%)" offset="0.742188"/><stop stop-opacity="1" stop-color="rgb(29.882812%, 86.233521%, 13.243103%)" offset="0.746094"/><stop stop-opacity="1" stop-color="rgb(29.798889%, 86.299133%, 12.89978%)" offset="0.75"/><stop stop-opacity="1" stop-color="rgb(29.798889%, 86.299133%, 12.89978%)" offset="1"/></linearGradient><clipPath id="316bdc862d"><path d="M 11.578125 5.613281 L 16 5.613281 L 16 18.238281 L 11.578125 18.238281 Z M 11.578125 5.613281 " clip-rule="nonzero"/></clipPath><clipPath id="50c7fa7032"><path d="M 15 5.613281 L 19 5.613281 L 19 18.238281 L 15 18.238281 Z M 15 5.613281 " clip-rule="nonzero"/></clipPath><clipPath id="4e133fb8b9"><path d="M 18 5.613281 L 22 5.613281 L 22 18.238281 L 18 18.238281 Z M 18 5.613281 " clip-rule="nonzero"/></clipPath><clipPath id="2b26c9d13c"><path d="M 21 5.613281 L 25.421875 5.613281 L 25.421875 18.238281 L 21 18.238281 Z M 21 5.613281 " clip-rule="nonzero"/></clipPath></defs><g clip-path="url(#e8ead560dd)"><path fill="#ffffff" d="M 0.0898438 0 L 36.917969 0 L 36.917969 40.511719 L 0.0898438 40.511719 Z M 0.0898438 0 " fill-opacity="1" fill-rule="nonzero"/><path fill="#f6f6f6" d="M 0.0898438 0 L 36.917969 0 L 36.917969 40.511719 L 0.0898438 40.511719 Z M 0.0898438 0 " fill-opacity="1" fill-rule="nonzero"/></g><g fill="#352359" fill-opacity="1"><g transform="translate(2.408506, 31.694804)"><g><path d="M 0.734375 0 L 0.734375 -6.59375 L 2.171875 -6.59375 L 2.171875 -1.28125 L 4.671875 -1.28125 L 4.671875 0 Z M 0.734375 0 "/></g></g></g><g fill="#352359" fill-opacity="1"><g transform="translate(7.421962, 31.694804)"><g><path d="M 3.578125 -0.828125 L 3.53125 -0.828125 C 3.488281 -0.703125 3.429688 -0.582031 3.359375 -0.46875 C 3.285156 -0.351562 3.191406 -0.25 3.078125 -0.15625 C 2.960938 -0.0703125 2.828125 -0.0078125 2.671875 0.03125 C 2.523438 0.0820312 2.347656 0.109375 2.140625 0.109375 C 1.628906 0.109375 1.242188 -0.0546875 0.984375 -0.390625 C 0.722656 -0.722656 0.59375 -1.207031 0.59375 -1.84375 L 0.59375 -4.96875 L 2 -4.96875 L 2 -1.96875 C 2 -1.664062 2.050781 -1.429688 2.15625 -1.265625 C 2.257812 -1.097656 2.441406 -1.015625 2.703125 -1.015625 C 2.804688 -1.015625 2.910156 -1.03125 3.015625 -1.0625 C 3.128906 -1.09375 3.226562 -1.140625 3.3125 -1.203125 C 3.394531 -1.265625 3.457031 -1.335938 3.5 -1.421875 C 3.550781 -1.515625 3.578125 -1.617188 3.578125 -1.734375 L 3.578125 -4.96875 L 4.984375 -4.96875 L 4.984375 0 L 3.578125 0 Z M 3.578125 -0.828125 "/></g></g></g><g fill="#352359" fill-opacity="1"><g transform="translate(13.059734, 31.694804)"><g><path d="M 0.171875 0 L 1.8125 -2.53125 L 0.1875 -4.96875 L 1.78125 -4.96875 L 2.703125 -3.40625 L 2.734375 -3.40625 L 3.640625 -4.96875 L 5.109375 -4.96875 L 3.46875 -2.484375 L 5.125 0 L 3.53125 0 L 2.578125 -1.609375 L 2.546875 -1.609375 L 1.625 0 Z M 0.171875 0 "/></g></g></g><g fill="#352359" fill-opacity="1"><g transform="translate(18.35697, 31.694804)"><g><path d="M 5.25 0.359375 C 5.25 0.617188 5.203125 0.847656 5.109375 1.046875 C 5.015625 1.253906 4.863281 1.425781 4.65625 1.5625 C 4.445312 1.707031 4.171875 1.816406 3.828125 1.890625 C 3.484375 1.960938 3.0625 2 2.5625 2 C 2.132812 2 1.769531 1.972656 1.46875 1.921875 C 1.164062 1.867188 0.921875 1.789062 0.734375 1.6875 C 0.554688 1.59375 0.421875 1.472656 0.328125 1.328125 C 0.242188 1.191406 0.203125 1.03125 0.203125 0.84375 C 0.203125 0.570312 0.285156 0.359375 0.453125 0.203125 C 0.617188 0.046875 0.847656 -0.0507812 1.140625 -0.09375 L 1.140625 -0.203125 C 0.898438 -0.242188 0.71875 -0.34375 0.59375 -0.5 C 0.476562 -0.664062 0.421875 -0.851562 0.421875 -1.0625 C 0.421875 -1.195312 0.445312 -1.3125 0.5 -1.40625 C 0.550781 -1.507812 0.617188 -1.597656 0.703125 -1.671875 C 0.785156 -1.742188 0.882812 -1.800781 1 -1.84375 C 1.113281 -1.882812 1.226562 -1.921875 1.34375 -1.953125 L 1.34375 -1.984375 C 1.039062 -2.117188 0.816406 -2.304688 0.671875 -2.546875 C 0.523438 -2.796875 0.453125 -3.082031 0.453125 -3.40625 C 0.453125 -3.90625 0.625 -4.304688 0.96875 -4.609375 C 1.320312 -4.921875 1.859375 -5.078125 2.578125 -5.078125 C 2.910156 -5.078125 3.191406 -5.046875 3.421875 -4.984375 L 3.421875 -5.171875 C 3.421875 -5.429688 3.484375 -5.617188 3.609375 -5.734375 C 3.742188 -5.859375 3.929688 -5.921875 4.171875 -5.921875 L 4.953125 -5.921875 L 4.953125 -4.875 L 3.859375 -4.875 L 3.859375 -4.828125 C 4.148438 -4.679688 4.363281 -4.488281 4.5 -4.25 C 4.632812 -4.007812 4.703125 -3.726562 4.703125 -3.40625 C 4.703125 -2.90625 4.523438 -2.503906 4.171875 -2.203125 C 3.828125 -1.910156 3.296875 -1.765625 2.578125 -1.765625 C 2.253906 -1.765625 1.960938 -1.796875 1.703125 -1.859375 C 1.554688 -1.765625 1.484375 -1.632812 1.484375 -1.46875 C 1.484375 -1.34375 1.53125 -1.25 1.625 -1.1875 C 1.71875 -1.125 1.867188 -1.09375 2.078125 -1.09375 L 3.515625 -1.09375 C 4.117188 -1.09375 4.554688 -0.960938 4.828125 -0.703125 C 5.109375 -0.453125 5.25 -0.0976562 5.25 0.359375 Z M 3.9375 0.546875 C 3.9375 0.398438 3.878906 0.289062 3.765625 0.21875 C 3.648438 0.144531 3.453125 0.109375 3.171875 0.109375 L 1.46875 0.109375 C 1.40625 0.171875 1.359375 0.238281 1.328125 0.3125 C 1.296875 0.394531 1.28125 0.472656 1.28125 0.546875 C 1.28125 0.734375 1.359375 0.867188 1.515625 0.953125 C 1.679688 1.035156 1.953125 1.078125 2.328125 1.078125 L 2.890625 1.078125 C 3.265625 1.078125 3.53125 1.035156 3.6875 0.953125 C 3.851562 0.867188 3.9375 0.734375 3.9375 0.546875 Z M 2.578125 -2.671875 C 2.859375 -2.671875 3.066406 -2.726562 3.203125 -2.84375 C 3.335938 -2.96875 3.40625 -3.140625 3.40625 -3.359375 L 3.40625 -3.46875 C 3.40625 -3.6875 3.335938 -3.851562 3.203125 -3.96875 C 3.066406 -4.09375 2.859375 -4.15625 2.578125 -4.15625 C 2.304688 -4.15625 2.101562 -4.09375 1.96875 -3.96875 C 1.832031 -3.851562 1.765625 -3.6875 1.765625 -3.46875 L 1.765625 -3.359375 C 1.765625 -3.140625 1.832031 -2.96875 1.96875 -2.84375 C 2.101562 -2.726562 2.304688 -2.671875 2.578125 -2.671875 Z M 2.578125 -2.671875 "/></g></g></g><g fill="#352359" fill-opacity="1"><g transform="translate(23.578532, 31.694804)"><g><path d="M 4.3125 0 C 4.0625 0 3.851562 -0.078125 3.6875 -0.234375 C 3.519531 -0.390625 3.414062 -0.601562 3.375 -0.875 L 3.3125 -0.875 C 3.238281 -0.550781 3.070312 -0.304688 2.8125 -0.140625 C 2.550781 0.0234375 2.234375 0.109375 1.859375 0.109375 C 1.359375 0.109375 0.976562 -0.0195312 0.71875 -0.28125 C 0.457031 -0.550781 0.328125 -0.898438 0.328125 -1.328125 C 0.328125 -1.859375 0.515625 -2.25 0.890625 -2.5 C 1.273438 -2.757812 1.796875 -2.890625 2.453125 -2.890625 L 3.234375 -2.890625 L 3.234375 -3.1875 C 3.234375 -3.425781 3.171875 -3.617188 3.046875 -3.765625 C 2.921875 -3.910156 2.707031 -3.984375 2.40625 -3.984375 C 2.132812 -3.984375 1.914062 -3.921875 1.75 -3.796875 C 1.582031 -3.679688 1.445312 -3.546875 1.34375 -3.390625 L 0.515625 -4.125 C 0.710938 -4.425781 0.960938 -4.660156 1.265625 -4.828125 C 1.578125 -4.992188 1.992188 -5.078125 2.515625 -5.078125 C 3.222656 -5.078125 3.75 -4.921875 4.09375 -4.609375 C 4.445312 -4.304688 4.625 -3.859375 4.625 -3.265625 L 4.625 -1.09375 L 5.09375 -1.09375 L 5.09375 0 Z M 2.375 -0.859375 C 2.613281 -0.859375 2.816406 -0.90625 2.984375 -1 C 3.148438 -1.101562 3.234375 -1.269531 3.234375 -1.5 L 3.234375 -2.09375 L 2.546875 -2.09375 C 2.003906 -2.09375 1.734375 -1.90625 1.734375 -1.53125 L 1.734375 -1.390625 C 1.734375 -1.203125 1.785156 -1.066406 1.890625 -0.984375 C 2.003906 -0.898438 2.164062 -0.859375 2.375 -0.859375 Z M 2.375 -0.859375 "/></g></g></g><g fill="#352359" fill-opacity="1"><g transform="translate(28.960903, 31.694804)"><g><path d="M 0.65625 0 L 0.65625 -4.96875 L 2.046875 -4.96875 L 2.046875 -4.125 L 2.109375 -4.125 C 2.191406 -4.382812 2.34375 -4.609375 2.5625 -4.796875 C 2.789062 -4.984375 3.097656 -5.078125 3.484375 -5.078125 C 3.992188 -5.078125 4.378906 -4.90625 4.640625 -4.5625 C 4.898438 -4.226562 5.03125 -3.742188 5.03125 -3.109375 L 5.03125 0 L 3.640625 0 L 3.640625 -3 C 3.640625 -3.320312 3.585938 -3.554688 3.484375 -3.703125 C 3.390625 -3.859375 3.210938 -3.9375 2.953125 -3.9375 C 2.835938 -3.9375 2.722656 -3.921875 2.609375 -3.890625 C 2.503906 -3.867188 2.410156 -3.828125 2.328125 -3.765625 C 2.242188 -3.703125 2.175781 -3.625 2.125 -3.53125 C 2.070312 -3.4375 2.046875 -3.332031 2.046875 -3.21875 L 2.046875 0 Z M 0.65625 0 "/></g></g></g><g clip-path="url(#f3b9212204)"><g clip-path="url(#c0dd685b55)"><path fill="url(#f899ed3925)" d="M 7.902344 22.476562 L 29.078125 22.476562 L 29.078125 1.300781 L 7.902344 1.300781 Z M 7.902344 22.476562 " fill-rule="nonzero"/></g></g><g clip-path="url(#316bdc862d)"><path fill="#5733ef" d="M 11.601562 18.191406 L 15.050781 13.992188 L 15.050781 5.613281 L 11.585938 9.828125 Z M 11.601562 18.191406 " fill-opacity="1" fill-rule="nonzero"/></g><g clip-path="url(#50c7fa7032)"><path fill="#85f89a" d="M 15.050781 5.613281 L 18.503906 9.808594 L 18.503906 18.191406 L 15.050781 13.972656 Z M 15.050781 5.613281 " fill-opacity="1" fill-rule="nonzero"/></g><g clip-path="url(#4e133fb8b9)"><path fill="#5733ef" d="M 18.519531 18.191406 L 21.964844 13.992188 L 21.964844 5.613281 L 18.503906 9.828125 Z M 18.519531 18.191406 " fill-opacity="1" fill-rule="nonzero"/></g><g clip-path="url(#2b26c9d13c)"><path fill="#85f89a" d="M 21.964844 5.613281 L 25.417969 9.808594 L 25.417969 18.191406 L 21.964844 13.972656 Z M 21.964844 5.613281 " fill-opacity="1" fill-rule="nonzero"/></g><g fill="#352359" fill-opacity="1"><g transform="translate(11.718747, 36.720786)"><g><path d="M 0.078125 -1.21875 L 0.25 -1.21875 L 0.390625 -0.6875 L 0.515625 -0.15625 L 0.828125 -1.21875 L 0.984375 -1.21875 L 1.15625 -0.6875 L 1.296875 -0.15625 L 1.3125 -0.15625 L 1.5625 -1.21875 L 1.734375 -1.21875 L 1.421875 0 L 1.1875 0 L 1.015625 -0.578125 L 0.90625 -0.953125 L 0.796875 -0.578125 L 0.625 0 L 0.40625 0 Z M 0.078125 -1.21875 "/></g></g></g><g fill="#352359" fill-opacity="1"><g transform="translate(13.718666, 36.720786)"><g><path d="M 1.078125 0 C 1.015625 0 0.96875 -0.015625 0.9375 -0.046875 C 0.90625 -0.0859375 0.882812 -0.140625 0.875 -0.203125 L 0.859375 -0.203125 C 0.835938 -0.117188 0.796875 -0.0546875 0.734375 -0.015625 C 0.671875 0.015625 0.597656 0.03125 0.515625 0.03125 C 0.378906 0.03125 0.273438 0 0.203125 -0.0625 C 0.140625 -0.132812 0.109375 -0.226562 0.109375 -0.34375 C 0.109375 -0.457031 0.148438 -0.546875 0.234375 -0.609375 C 0.316406 -0.671875 0.445312 -0.703125 0.625 -0.703125 L 0.859375 -0.703125 L 0.859375 -0.8125 C 0.859375 -0.90625 0.832031 -0.972656 0.78125 -1.015625 C 0.738281 -1.054688 0.671875 -1.078125 0.578125 -1.078125 C 0.503906 -1.078125 0.441406 -1.0625 0.390625 -1.03125 C 0.335938 -1 0.296875 -0.957031 0.265625 -0.90625 L 0.15625 -1 C 0.1875 -1.070312 0.238281 -1.128906 0.3125 -1.171875 C 0.382812 -1.222656 0.472656 -1.25 0.578125 -1.25 C 0.734375 -1.25 0.847656 -1.210938 0.921875 -1.140625 C 1.003906 -1.066406 1.046875 -0.960938 1.046875 -0.828125 L 1.046875 -0.171875 L 1.1875 -0.171875 L 1.1875 0 Z M 0.546875 -0.125 C 0.585938 -0.125 0.628906 -0.128906 0.671875 -0.140625 C 0.710938 -0.160156 0.742188 -0.175781 0.765625 -0.1875 C 0.796875 -0.207031 0.816406 -0.234375 0.828125 -0.265625 C 0.847656 -0.296875 0.859375 -0.328125 0.859375 -0.359375 L 0.859375 -0.546875 L 0.609375 -0.546875 C 0.503906 -0.546875 0.425781 -0.53125 0.375 -0.5 C 0.320312 -0.46875 0.296875 -0.425781 0.296875 -0.375 L 0.296875 -0.328125 C 0.296875 -0.265625 0.316406 -0.210938 0.359375 -0.171875 C 0.410156 -0.140625 0.472656 -0.125 0.546875 -0.125 Z M 0.546875 -0.125 "/></g></g></g><g fill="#352359" fill-opacity="1"><g transform="translate(15.165443, 36.720786)"><g><path d="M 0.46875 0 C 0.40625 0 0.351562 -0.015625 0.3125 -0.046875 C 0.28125 -0.0859375 0.265625 -0.140625 0.265625 -0.203125 L 0.265625 -1.046875 L 0.0625 -1.046875 L 0.0625 -1.21875 L 0.1875 -1.21875 C 0.226562 -1.21875 0.253906 -1.222656 0.265625 -1.234375 C 0.273438 -1.253906 0.28125 -1.285156 0.28125 -1.328125 L 0.28125 -1.5625 L 0.453125 -1.5625 L 0.453125 -1.21875 L 0.71875 -1.21875 L 0.71875 -1.046875 L 0.453125 -1.046875 L 0.453125 -0.171875 L 0.703125 -0.171875 L 0.703125 0 Z M 0.46875 0 "/></g></g></g><g fill="#352359" fill-opacity="1"><g transform="translate(16.179636, 36.720786)"><g><path d="M 0.65625 0.03125 C 0.570312 0.03125 0.492188 0.015625 0.421875 -0.015625 C 0.359375 -0.046875 0.300781 -0.0859375 0.25 -0.140625 C 0.207031 -0.191406 0.171875 -0.257812 0.140625 -0.34375 C 0.117188 -0.425781 0.109375 -0.515625 0.109375 -0.609375 C 0.109375 -0.703125 0.117188 -0.785156 0.140625 -0.859375 C 0.171875 -0.941406 0.207031 -1.007812 0.25 -1.0625 C 0.300781 -1.125 0.359375 -1.171875 0.421875 -1.203125 C 0.492188 -1.234375 0.570312 -1.25 0.65625 -1.25 C 0.769531 -1.25 0.863281 -1.222656 0.9375 -1.171875 C 1.007812 -1.117188 1.066406 -1.046875 1.109375 -0.953125 L 0.953125 -0.875 C 0.929688 -0.9375 0.894531 -0.984375 0.84375 -1.015625 C 0.789062 -1.054688 0.726562 -1.078125 0.65625 -1.078125 C 0.59375 -1.078125 0.539062 -1.066406 0.5 -1.046875 C 0.457031 -1.035156 0.421875 -1.007812 0.390625 -0.96875 C 0.367188 -0.9375 0.347656 -0.898438 0.328125 -0.859375 C 0.316406 -0.816406 0.3125 -0.769531 0.3125 -0.71875 L 0.3125 -0.5 C 0.3125 -0.394531 0.335938 -0.304688 0.390625 -0.234375 C 0.453125 -0.171875 0.539062 -0.140625 0.65625 -0.140625 C 0.800781 -0.140625 0.910156 -0.207031 0.984375 -0.34375 L 1.125 -0.265625 C 1.082031 -0.171875 1.019531 -0.0976562 0.9375 -0.046875 C 0.863281 0.00390625 0.769531 0.03125 0.65625 0.03125 Z M 0.65625 0.03125 "/></g></g></g><g fill="#352359" fill-opacity="1"><g transform="translate(17.553135, 36.720786)"><g><path d="M 0.203125 -1.75 L 0.390625 -1.75 L 0.390625 -1.015625 L 0.40625 -1.015625 C 0.425781 -1.085938 0.460938 -1.144531 0.515625 -1.1875 C 0.578125 -1.226562 0.65625 -1.25 0.75 -1.25 C 0.875 -1.25 0.972656 -1.207031 1.046875 -1.125 C 1.117188 -1.039062 1.15625 -0.925781 1.15625 -0.78125 L 1.15625 0 L 0.96875 0 L 0.96875 -0.75 C 0.96875 -0.96875 0.875 -1.078125 0.6875 -1.078125 C 0.644531 -1.078125 0.609375 -1.070312 0.578125 -1.0625 C 0.546875 -1.050781 0.515625 -1.035156 0.484375 -1.015625 C 0.453125 -0.992188 0.425781 -0.96875 0.40625 -0.9375 C 0.394531 -0.914062 0.390625 -0.882812 0.390625 -0.84375 L 0.390625 0 L 0.203125 0 Z M 0.203125 -1.75 "/></g></g></g><g fill="#352359" fill-opacity="1"><g transform="translate(19.080285, 36.720786)"><g><path d="M 0.5625 0.03125 C 0.445312 0.03125 0.351562 0.0078125 0.28125 -0.03125 C 0.207031 -0.0703125 0.140625 -0.128906 0.078125 -0.203125 L 0.21875 -0.3125 C 0.269531 -0.257812 0.320312 -0.210938 0.375 -0.171875 C 0.4375 -0.140625 0.503906 -0.125 0.578125 -0.125 C 0.660156 -0.125 0.722656 -0.140625 0.765625 -0.171875 C 0.804688 -0.210938 0.828125 -0.265625 0.828125 -0.328125 C 0.828125 -0.378906 0.8125 -0.421875 0.78125 -0.453125 C 0.757812 -0.484375 0.707031 -0.503906 0.625 -0.515625 L 0.53125 -0.53125 C 0.46875 -0.539062 0.410156 -0.550781 0.359375 -0.5625 C 0.316406 -0.582031 0.273438 -0.601562 0.234375 -0.625 C 0.203125 -0.65625 0.175781 -0.691406 0.15625 -0.734375 C 0.144531 -0.773438 0.140625 -0.828125 0.140625 -0.890625 C 0.140625 -0.953125 0.148438 -1.003906 0.171875 -1.046875 C 0.191406 -1.085938 0.21875 -1.125 0.25 -1.15625 C 0.289062 -1.1875 0.335938 -1.207031 0.390625 -1.21875 C 0.453125 -1.238281 0.507812 -1.25 0.5625 -1.25 C 0.664062 -1.25 0.75 -1.226562 0.8125 -1.1875 C 0.882812 -1.15625 0.945312 -1.109375 1 -1.046875 L 0.875 -0.9375 C 0.84375 -0.976562 0.800781 -1.007812 0.75 -1.03125 C 0.695312 -1.0625 0.628906 -1.078125 0.546875 -1.078125 C 0.472656 -1.078125 0.414062 -1.0625 0.375 -1.03125 C 0.332031 -1 0.3125 -0.953125 0.3125 -0.890625 C 0.3125 -0.835938 0.332031 -0.796875 0.375 -0.765625 C 0.414062 -0.742188 0.472656 -0.722656 0.546875 -0.703125 L 0.640625 -0.6875 C 0.773438 -0.664062 0.867188 -0.625 0.921875 -0.5625 C 0.984375 -0.507812 1.015625 -0.4375 1.015625 -0.34375 C 1.015625 -0.226562 0.972656 -0.132812 0.890625 -0.0625 C 0.816406 0 0.707031 0.03125 0.5625 0.03125 Z M 0.5625 0.03125 "/></g></g></g><g fill="#352359" fill-opacity="1"><g transform="translate(20.415963, 36.720786)"><g><path d="M 0.46875 0 C 0.40625 0 0.351562 -0.015625 0.3125 -0.046875 C 0.28125 -0.0859375 0.265625 -0.140625 0.265625 -0.203125 L 0.265625 -1.046875 L 0.0625 -1.046875 L 0.0625 -1.21875 L 0.1875 -1.21875 C 0.226562 -1.21875 0.253906 -1.222656 0.265625 -1.234375 C 0.273438 -1.253906 0.28125 -1.285156 0.28125 -1.328125 L 0.28125 -1.5625 L 0.453125 -1.5625 L 0.453125 -1.21875 L 0.71875 -1.21875 L 0.71875 -1.046875 L 0.453125 -1.046875 L 0.453125 -0.171875 L 0.703125 -0.171875 L 0.703125 0 Z M 0.46875 0 "/></g></g></g><g fill="#352359" fill-opacity="1"><g transform="translate(21.430156, 36.720786)"><g><path d="M 0.65625 0.03125 C 0.570312 0.03125 0.492188 0.015625 0.421875 -0.015625 C 0.359375 -0.046875 0.300781 -0.0859375 0.25 -0.140625 C 0.207031 -0.203125 0.171875 -0.269531 0.140625 -0.34375 C 0.117188 -0.425781 0.109375 -0.515625 0.109375 -0.609375 C 0.109375 -0.703125 0.117188 -0.785156 0.140625 -0.859375 C 0.171875 -0.941406 0.207031 -1.007812 0.25 -1.0625 C 0.300781 -1.125 0.359375 -1.171875 0.421875 -1.203125 C 0.492188 -1.234375 0.570312 -1.25 0.65625 -1.25 C 0.738281 -1.25 0.8125 -1.234375 0.875 -1.203125 C 0.945312 -1.171875 1.003906 -1.125 1.046875 -1.0625 C 1.097656 -1.007812 1.132812 -0.941406 1.15625 -0.859375 C 1.1875 -0.785156 1.203125 -0.703125 1.203125 -0.609375 C 1.203125 -0.515625 1.1875 -0.425781 1.15625 -0.34375 C 1.132812 -0.269531 1.097656 -0.203125 1.046875 -0.140625 C 1.003906 -0.0859375 0.945312 -0.046875 0.875 -0.015625 C 0.8125 0.015625 0.738281 0.03125 0.65625 0.03125 Z M 0.65625 -0.140625 C 0.757812 -0.140625 0.84375 -0.171875 0.90625 -0.234375 C 0.96875 -0.296875 1 -0.390625 1 -0.515625 L 1 -0.703125 C 1 -0.828125 0.96875 -0.921875 0.90625 -0.984375 C 0.84375 -1.046875 0.757812 -1.078125 0.65625 -1.078125 C 0.550781 -1.078125 0.46875 -1.046875 0.40625 -0.984375 C 0.34375 -0.921875 0.3125 -0.828125 0.3125 -0.703125 L 0.3125 -0.515625 C 0.3125 -0.390625 0.34375 -0.296875 0.40625 -0.234375 C 0.46875 -0.171875 0.550781 -0.140625 0.65625 -0.140625 Z M 0.65625 -0.140625 "/></g></g></g><g fill="#352359" fill-opacity="1"><g transform="translate(22.938395, 36.720786)"><g><path d="M 0.203125 0 L 0.203125 -1.21875 L 0.390625 -1.21875 L 0.390625 -1 L 0.40625 -1 C 0.425781 -1.050781 0.460938 -1.097656 0.515625 -1.140625 C 0.578125 -1.191406 0.65625 -1.21875 0.75 -1.21875 L 0.828125 -1.21875 L 0.828125 -1.03125 L 0.71875 -1.03125 C 0.613281 -1.03125 0.53125 -1.007812 0.46875 -0.96875 C 0.414062 -0.925781 0.390625 -0.878906 0.390625 -0.828125 L 0.390625 0 Z M 0.203125 0 "/></g></g></g><g fill="#352359" fill-opacity="1"><g transform="translate(23.990411, 36.720786)"><g><path d="M 0.65625 0.03125 C 0.570312 0.03125 0.492188 0.015625 0.421875 -0.015625 C 0.359375 -0.046875 0.300781 -0.0859375 0.25 -0.140625 C 0.207031 -0.203125 0.171875 -0.269531 0.140625 -0.34375 C 0.117188 -0.425781 0.109375 -0.515625 0.109375 -0.609375 C 0.109375 -0.703125 0.117188 -0.785156 0.140625 -0.859375 C 0.171875 -0.941406 0.207031 -1.007812 0.25 -1.0625 C 0.300781 -1.125 0.359375 -1.171875 0.421875 -1.203125 C 0.492188 -1.234375 0.570312 -1.25 0.65625 -1.25 C 0.738281 -1.25 0.8125 -1.234375 0.875 -1.203125 C 0.9375 -1.171875 0.988281 -1.128906 1.03125 -1.078125 C 1.082031 -1.023438 1.117188 -0.960938 1.140625 -0.890625 C 1.171875 -0.816406 1.1875 -0.738281 1.1875 -0.65625 L 1.1875 -0.5625 L 0.3125 -0.5625 L 0.3125 -0.5 C 0.3125 -0.445312 0.316406 -0.398438 0.328125 -0.359375 C 0.347656 -0.316406 0.375 -0.273438 0.40625 -0.234375 C 0.4375 -0.203125 0.472656 -0.175781 0.515625 -0.15625 C 0.554688 -0.144531 0.609375 -0.140625 0.671875 -0.140625 C 0.742188 -0.140625 0.804688 -0.15625 0.859375 -0.1875 C 0.921875 -0.226562 0.96875 -0.28125 1 -0.34375 L 1.140625 -0.25 C 1.097656 -0.164062 1.035156 -0.0976562 0.953125 -0.046875 C 0.867188 0.00390625 0.769531 0.03125 0.65625 0.03125 Z M 0.65625 -1.09375 C 0.601562 -1.09375 0.554688 -1.082031 0.515625 -1.0625 C 0.472656 -1.039062 0.4375 -1.015625 0.40625 -0.984375 C 0.375 -0.953125 0.347656 -0.910156 0.328125 -0.859375 C 0.316406 -0.816406 0.3125 -0.769531 0.3125 -0.71875 L 0.3125 -0.703125 L 0.984375 -0.703125 L 0.984375 -0.734375 C 0.984375 -0.835938 0.953125 -0.921875 0.890625 -0.984375 C 0.828125 -1.054688 0.75 -1.09375 0.65625 -1.09375 Z M 0.65625 -1.09375 "/></g></g></g></svg>